<?xml version="1.0" encoding="UTF-8"?>
<svg
  id="Layer_1"
  xmlns="http://www.w3.org/2000/svg"
  version="1.1"
  viewBox="0 0 144 144"
>
  <!-- Generator: Adobe Illustrator 29.4.0, SVG Export Plug-In . SVG Version: 2.1.0 Build 152)  -->
  <defs>
    <style>
    .st0 {
      font-family: MuseoSansRounded-900, "Museo Sans Rounded";
      font-size: 108.89px;
    }

    .st1 {
      fill: #fff;
    }
    </style>
  </defs>
  <text class="st0" transform="translate(57.05 125.08)"><tspan x="0" y="0"
    >F</tspan></text>
  <path
    d="M74.7,76.84c1.55-4.85,3.29-10.11,6.56-14.12,1.36-1.67,3.69-2.87,4.81-4.66,1.56-2.52,1.87-6.72,1.29-9.51-.04-.21-.07-.42-.08-.63-.07,0-.13,0-.2-.01-1.11-5.23-6.27-6.26-9.83-2.49-.62-1.94-2.29-3.46-4.14-4.27,10.62-5.76,8.39-21.75-3.57-24.28-5.42-1.15-10.84,1.16-13.81,5.8-3.04,4.75-2.54,11.3,1.11,15.58-.93.39-2.28,1.67-2.9,2.48-1.32,1.72-5.92,12.33-6.4,14.56-.78,3.61-.24,6.87,2.86,9.12,1.82,1.31,5.47,2.65,6.97,4.06,4.44,4.17-6.12,13.91.59,18.99,1.14.86,2.69,1.11,3.56,1.68.42.28.53.83.86,1.07,2.34,1.7,4.01,2.19,6.87,1.27M60.97,85.95c-5.1-1.88-1.05-7.35-.24-10.86.33-1.44.54-2.84.65-4.31,4.01,4.16-.59,10.36-.41,15.16ZM65.65,76.98c.24-2.91.26-6.29-2.22-8.25-3.13-2.48-9.44-4.63-12.13-7.17-1.85-1.75-1.32-5.07-.59-7.24.73-2.15,4.28-10.26,5.45-11.92.43-.62,1.87-1.96,2.58-2.09.45-.08,2.44,1.61,3.01-.04.62-1.78-1.83-2.75-2.85-3.95-8.44-9.9,6.24-23.26,15.45-13.8.72.74,3.03,4.74,2.57,5.48-.06.1-.52.12-.65.31-1.01,1.53,1.92,3.11,0,4.98-2.15,2.1-4.97-1.91-6.45.74-.22.93.85,1.57,1.53,1.96l3.12.87c-1.22.54-1.93,1.59-3.2,2.17-1.34.62-4.55.72-4.51,2.35.04,1.63,2.75,1.4,4.01,1.8,4.85,1.54,3.57,4.09,5.31,7.65.57,1.17,1.6,3.06,3.18,2.04,1.18-.77-1.12-4.03.45-5.96,1.15-1.4,3.78-1.48,4.3.68.72,3.02-1.27,9.6-4.62,10.59-3.34.99-4.94-.67-6.25-3.57-1.25-2.76-1.93-10.92-6.22-5.04-1.41,1.93-2.46,4.69-3.47,6.87-1.14-1.17-4.14-1.29-3.47.83.27.86,5.17,3.62,6.32,4.46,1.66,1.21,6.5,5.07,6.81,7,.15.96-.89,4.5-1.18,5.69-1.2,4.88-2.83,9.66-4.09,14.53-7.52.77-2.51-7.97-2.18-11.97Z"
  />
  <path
    class="st1"
    d="M76.93,28c-.06.1-.52.12-.65.31-1.01,1.53,1.92,3.11,0,4.98-2.15,2.1-4.97-1.91-6.45.74-.22.93.85,1.57,1.53,1.96l3.12.87c-1.22.54-1.93,1.59-3.2,2.17-1.33.62-4.55.72-4.51,2.35s2.75,1.4,4.01,1.8c4.85,1.54,3.57,4.09,5.31,7.65.57,1.17,1.6,3.06,3.18,2.04,1.18-.77-1.12-4.03.45-5.96,1.15-1.4,3.78-1.48,4.3.68.72,3.02-1.27,9.6-4.62,10.59s-4.94-.67-6.25-3.57-1.93-10.92-6.22-5.04c-1.41,1.93-2.46,4.69-3.47,6.87-1.14-1.17-4.14-1.29-3.47.83.27.86,5.17,3.62,6.32,4.46,1.66,1.21,6.5,5.07,6.81,7,.15.96-.89,4.5-1.18,5.69-1.2,4.88-2.83,9.66-4.09,14.53-7.52.77-2.51-7.97-2.18-11.97.24-2.91.26-6.29-2.22-8.25-3.13-2.48-9.44-4.63-12.13-7.17-1.85-1.75-1.32-5.07-.59-7.24s4.28-10.26,5.45-11.92c.43-.62,1.87-1.96,2.58-2.09.45-.08,2.44,1.61,3.01-.04.62-1.78-1.83-2.75-2.85-3.95-8.44-9.9,6.24-23.26,15.45-13.8.72.74,3.03,4.74,2.57,5.48ZM72.72,29.2c0-.88-.71-1.6-1.6-1.6s-1.6.71-1.6,1.6.71,1.6,1.6,1.6,1.6-.71,1.6-1.6Z"
  />
  <circle cx="69.02" cy="27.33" r="1.6" />
  <path
    d="M32.05,59.75c-1.09,1.09-2-.18-2.77-.54-3.58-1.65-7.19,1.42-5.57,5.02.48,1.08,1.95,1.76.85,3.05-1.45,1.72-3.35-1.08-3.47-2.5-5.04.85-5.29,8.07-.28,8.99,1.35.25,4.04-.98,3.59,1.62-.23,1.34-2.55,1.25-3.59,1.25-.05,5.72,6.11,7.72,10.48,4.68.11-.16-1.56-1.73-.16-2.77s2.08.79,2.78,1.4c2.14,1.89,5.49,1.15,6.41-1.59.42-1.25-.05-3.35,1.59-3.35s1.39,2.74,1.18,3.91c-.52,2.76-3.7,4.9-6.41,4.91-1.07,0-2.89-.8-3.32-.76-.22.02-.87.82-1.32,1.07-6.04,3.29-12.65.75-14.13-6.11-.18-.83.03-1.83-.27-2.49-.24-.54-1.71-1.54-2.18-2.23-2.91-4.26-.1-10.54,5.05-11.04.32-4.79,5.15-7.75,9.6-5.81,1.1.48,3.18,2.07,1.95,3.29Z"
  />
  <path
    d="M45.56,60.71c.85.85.17,1.84-.69,2.34-1.89,1.1-13.38,5.57-15.49,6.02-2.48.52-3.08-1.47-1.19-2.56s13.43-5.61,15.49-6.02c.57-.11,1.43-.21,1.88.23Z"
  />
  <path
    d="M45.56,63.17c.73-.12,1.59.55,1.7,1.26s-.62,1.16-1.09,1.57c-1.71,1.48-11.9,7.87-13.93,8.68-.74.3-1.41.6-2.07-.08-.38-.49-.42-1.49.03-1.95l15.36-9.47Z"
  />
</svg>
